<svg width="45" height="44" viewBox="0 0 55 54" fill="none" xmlns="http://www.w3.org/2000/svg">
<mask id="mask0_17_39" style="mask-type:alpha" maskUnits="userSpaceOnUse" x="0" y="0" width="55" height="54">
<path fill-rule="evenodd" clip-rule="evenodd" d="M10.7041 10.3473C10.7041 1.69662 22.1158 -3.43429 28.8341 4.61098C23.5923 6.6223 18.9517 12.9846 20.9345 20.0961C20.9029 20.0961 20.8713 20.1012 20.8396 20.1063C20.808 20.1115 20.7763 20.1166 20.7447 20.1166C15.1971 20.1166 10.7041 15.7451 10.7041 10.3473ZM44.2853 16.9149C44.2853 22.3103 39.79 26.6841 34.2447 26.6841C28.6994 26.6841 24.2041 22.3103 24.2041 16.9149C24.2041 11.5195 28.6994 7.14561 34.2447 7.14561C39.79 7.14561 44.2853 11.5195 44.2853 16.9149ZM54.326 44.5703C54.326 55.9609 14.1846 55.9609 14.1846 44.5703C14.1846 24.4366 54.326 24.6418 54.326 44.5703ZM22.0974 23.0514C3.556 20.5784 -8.36197 41.5125 9.04037 45.0836C9.20912 35.4683 16.7185 29.619 25.9048 27.464C24.3228 26.2839 23.0255 24.7857 22.0974 23.0514Z" fill="#6B6C7E"/>
</mask>
<g mask="url(#mask0_17_39)">
<rect x="0.5" y="0.567627" width="54" height="52.5405" fill="white"/>
</g>

</svg>
